HIERARCHY
ROOT Hips
{
	OFFSET 0.000000 0.000000 0.000000 
	CHANNELS 6 Xposition Yposition Zposition Yrotation Zrotation Xrotation 
	JOINT Lumbar
	{
		OFFSET 0.000000 0.000000 0.000000 
		CHANNELS 3 Zrotation Xrotation Yrotation
		JOINT Neck
		{
			OFFSET 0.000000 0.445665 0.000000 
			CHANNELS 3 Zrotation Xrotation Yrotation
			End Site
			{
				OFFSET 0.000000 0.227535 0.000000 
			}
		}
		JOINT RightShoulder
		{
			OFFSET 0.019635 0.377685 0.194865 
			CHANNELS 3 Zrotation Xrotation Yrotation
			JOINT RightElbow
			{
				OFFSET 0.000000 -0.243375 0.000000 
				CHANNELS 2 Zrotation Yrotation
				JOINT RightWrist
				{
					OFFSET 0.000000 -0.264825 0.000000 
					CHANNELS 2 Zrotation Xrotation
					End Site
					{
						OFFSET 0.006600 -0.176220 0.000990 
					}
				}
			}
		}
		JOINT LeftShoulder
		{
			OFFSET 0.019635 0.377685 -0.194865 
			CHANNELS 3 Zrotation Xrotation Yrotation
			JOINT LeftElbow
			{
				OFFSET 0.000000 -0.243375 0.000000 
				CHANNELS 2 Zrotation Yrotation
				JOINT LeftWrist
				{
					OFFSET 0.000000 -0.264825 0.000000 
					CHANNELS 2 Zrotation Xrotation
					End Site
					{
						OFFSET 0.006600 -0.176220 -0.000990 
					}
				}
			}
		}
	}
	JOINT RightHip
	{
		OFFSET 0.052140 -0.069960 0.075570 
		CHANNELS 3 Zrotation Xrotation Yrotation
		JOINT RightKnee
		{
			OFFSET 0.000000 -0.402270 0.000000 
			CHANNELS 1 Zrotation
			JOINT RightAnkle
			{
				OFFSET 0.000000 -0.404085 0.000000 
				CHANNELS 3 Zrotation Xrotation Yrotation
				End Site
				{
					OFFSET 0.204105 -0.089430 0.008415 
				}
			}
		}
	}
	JOINT LeftHip
	{
		OFFSET 0.052140 -0.069960 -0.075570 
		CHANNELS 3 Zrotation Xrotation Yrotation
		JOINT LeftKnee
		{
			OFFSET 0.000000 -0.402270 0.000000 
			CHANNELS 1 Zrotation
			JOINT LeftAnkle
			{
				OFFSET 0.000000 -0.404085 0.000000 
				CHANNELS 3 Zrotation Xrotation Yrotation
				End Site
				{
					OFFSET 0.204105 -0.089430 -0.008415 
				}
			}
		}
	}
}
MOTION
Frames: 29
Frame Time: 0.02
0 0.95578 -0 182.699 0 -2.9068 1.34061 1.70952 -0.46928 -32.5853 7.08775 -0.66275 -0.41768 -68.57783 -66.41394 21.90438 79.40105 -17.60333 -2.51283 4.70002 62.61227 61.88045 20.6641 -77.10296 -22.97061 2.17272 -3.49306 3.46244 5.87456 -7.14938 -1.12224 -2.85907 -6.64892 -1.4678 3.44884 -1.41305 -7.46912 4.79718 0.5284 -2.45885
3e-05 0.95577 3e-05 182.69911 0 -2.90667 1.32455 1.70874 -1.37283 -32.66769 6.59104 0.10904 -0.36185 -68.56119 -66.36574 21.89476 79.35203 -17.58166 -2.53513 4.70525 62.60084 61.85468 20.68027 -77.00908 -22.95386 2.21074 -3.49061 3.4624 5.90507 -7.15241 -1.12168 -2.87918 -6.68049 -1.45815 3.44477 -1.43289 -7.48465 4.80032 0.52021 -2.45131
7e-05 0.95577 6e-05 182.69923 0 -2.90653 1.30851 1.7079 -2.26936 -32.74934 6.09834 0.87488 -0.3062 -68.54472 -66.3175 21.88522 79.30317 -17.56009 -2.55734 4.71026 62.58912 61.82896 20.69647 -76.91637 -22.93707 2.24863 -3.48817 3.46231 5.93538 -7.15547 -1.12109 -2.89914 -6.71179 -1.44849 3.44064 -1.45288 -7.50024 4.80352 0.51219 -2.4435
0.0001 0.95576 9e-05 182.69936 0 -2.90637 1.29248 1.70692 -3.14601 -32.82883 5.61703 1.62402 -0.25163 -68.52866 -66.26975 21.87579 79.25413 -17.53883 -2.57932 4.71458 62.5767 61.80324 20.71218 -76.82761 -22.92018 2.28611 -3.48574 3.46205 5.96492 -7.15859 -1.12037 -2.9187 -6.7421 -1.43872 3.43634 -1.47374 -7.51618 4.80693 0.50472 -2.43459
0.00013 0.95575 0.00011 182.69943 0 -2.90635 1.27648 1.70678 -4.12725 -32.91973 5.07561 2.46109 -0.19242 -68.51028 -66.22076 21.86562 79.20562 -17.51609 -2.60244 4.72269 62.56869 61.77759 20.72956 -76.71816 -22.90406 2.32547 -3.48324 3.46273 5.9982 -7.16133 -1.12037 -2.94039 -6.77736 -1.42955 3.4331 -1.49005 -7.53023 4.80917 0.49426 -2.43158
0.00016 0.95574 0.00015 182.69962 0 -2.90602 1.26036 1.70482 -4.8868 -32.98646 4.66174 3.11174 -0.14237 -68.49691 -66.17352 21.85713 79.1563 -17.49637 -2.62315 4.72271 62.5509 61.75177 20.74404 -76.65241 -22.8862 2.36099 -3.48088 3.46139 6.02374 -7.16491 -1.11881 -2.95757 -6.80232 -1.41913 3.42753 -1.51595 -7.54829 4.81392 0.49018 -2.41602
0.00015 0.95572 0.00024 182.70032 0 -2.90476 1.24422 1.69791 -5.02824 -32.98515 4.60258 3.24338 -0.12287 -68.49665 -66.1377 21.85265 79.10094 -17.48593 -2.63731 4.70016 62.5085 61.72485 20.74527 -76.71173 -22.86396 2.38519 -3.47898 3.45456 6.0262 -7.17045 -1.11289 -2.96214 -6.79675 -1.40483 3.41568 -1.57011 -7.57797 4.82569 0.50403 -2.3646
0.00013 0.95571 0.00035 182.7011 0 -2.9032 1.22788 1.68915 -4.94704 -32.95965 4.67169 3.18769 -0.11155 -68.5015 -66.1023 21.85007 79.04537 -17.47839 -2.64899 4.66952 62.4558 61.69767 20.7446 -76.81465 -22.83991 2.40569 -3.4772 3.44566 6.02113 -7.17689 -1.10539 -2.9622 -6.78112 -1.38933 3.40143 -1.63372 -7.61162 4.83998 0.52431 -2.30066
0.00012 0.95569 0.00045 182.70172 0 -2.90183 1.21141 1.68119 -4.97179 -32.94605 4.68043 3.22071 -0.09313 -68.50457 -66.06254 21.84696 78.9923 -17.46885 -2.66185 4.64262 62.40611 61.67119 20.74812 -76.89453 -22.81631 2.42837 -3.47532 3.43765 6.02068 -7.18312 -1.09863 -2.96442 -6.77149 -1.37465 3.38819 -1.69188 -7.64312 4.85306 0.54147 -2.24321
0.00011 0.95568 0.00054 182.7029 0 -2.90021 1.19588 1.67342 -4.97668 -32.92867 4.69788 3.23887 -0.08927 -68.50565 -66.04084 21.84211 78.92914 -17.46205 -2.67469 4.61521 62.36324 61.64294 20.73733 -76.98704 -22.79406 2.44889 -3.47366 3.42991 6.01534 -7.18849 -1.09179 -2.96615 -6.756 -1.35884 3.37535 -1.75478 -7.67605 4.86644 0.55939 -2.1825
9e-05 0.95566 0.00067 182.70291 0 -2.89906 1.17833 1.66478 -4.96966 -32.91334 4.72773 3.24315 -0.05666 -68.51171 -65.98106 21.84172 78.88685 -17.45039 -2.68672 4.58722 62.304 61.61747 20.75622 -77.06482 -22.76887 2.47312 -3.47155 3.42106 6.0182 -7.19588 -1.08472 -2.96785 -6.75012 -1.34507 3.36105 -1.81021 -7.70697 4.87978 0.57734 -2.12547
5e-05 0.95565 0.00091 182.69968 0 -2.89924 1.15552 1.6545 -4.9879 -32.91026 4.75975 3.25785 0.05428 -68.5336 -65.82058 21.84994 78.90323 -17.42294 -2.69962 4.55713 62.19976 61.60712 20.85478 -77.08042 -22.73304 2.50767 -3.46819 3.41 6.04723 -7.20862 -1.07747 -2.97047 -6.775 -1.33726 3.34373 -1.84134 -7.73134 4.89261 0.59314 -2.08279
0 0.95564 0.0012 182.69523 0 -2.89994 1.13063 1.64336 -5.00116 -32.9099 4.79995 3.26449 0.19508 -68.5597 -65.62078 21.86319 78.94063 -17.39065 -2.71144 4.52721 62.07988 61.59824 20.98371 -77.08134 -22.69461 2.54615 -3.46434 3.39781 6.0845 -7.22339 -1.07004 -2.97321 -6.80956 -1.33149 3.32494 -1.86488 -7.75361 4.9053 0.6089 -2.044
-4e-05 0.95562 0.00147 182.69137 0 -2.90044 1.10657 1.63244 -5.01435 -32.90789 4.83683 3.27289 0.32413 -68.58168 -65.43618 21.87627 78.96745 -17.36183 -2.72198 4.49878 61.96865 61.58378 21.10062 -77.09659 -22.65961 2.58353 -3.4607 3.38592 6.11685 -7.23722 -1.06264 -2.97596 -6.83851 -1.32476 3.30657 -1.89277 -7.77678 4.91791 0.62511 -2.00277
-9e-05 0.95561 0.00173 182.68751 0 -2.90072 1.08307 1.62221 -5.02971 -32.90697 4.87648 3.28279 0.4449 -68.61314 -65.26343 21.88049 78.9977 -17.32832 -2.73941 4.46334 61.85042 61.58983 21.21022 -77.0826 -22.61604 2.61831 -3.4572 3.37488 6.1537 -7.25109 -1.05535 -2.97834 -6.87218 -1.31822 3.28923 -1.91718 -7.80009 4.93114 0.63967 -1.96414
-0.00013 0.9556 0.00203 182.68315 0 -2.90163 1.05783 1.61029 -5.04215 -32.90449 4.91071 3.29012 0.59052 -68.6258 -65.05594 21.90431 79.02691 -17.3027 -2.74288 4.44276 61.74333 61.55377 21.34192 -77.12351 -22.58846 2.65892 -3.4532 3.36179 6.18349 -7.26541 -1.04786 -2.98152 -6.89849 -1.31168 3.26937 -1.94691 -7.82282 4.94309 0.65765 -1.92096
-0.00016 0.95557 0.00242 182.6794 0 -2.90391 1.02894 1.59456 -5.05001 -32.89921 4.92659 3.29312 0.79436 -68.58531 -64.76736 21.98191 79.03882 -17.30607 -2.70292 4.46229 61.66955 61.39881 21.53053 -77.33586 -22.61608 2.71967 -3.4487 3.34348 6.18969 -7.27999 -1.03959 -2.98727 -6.90189 -1.30575 3.24332 -1.99293 -7.842 4.95083 0.68452 -1.86621
-0.00019 0.95555 0.00286 182.67477 0 -2.90686 0.99823 1.57701 -5.0559 -32.89189 4.93636 3.29468 1.02307 -68.52573 -64.44365 22.07924 79.05085 -17.31656 -2.64992 4.49691 61.60767 61.20172 21.73987 -77.6006 -22.65753 2.7852 -3.44353 3.32309 6.18896 -7.29513 -1.03116 -2.99376 -6.89758 -1.29958 3.2147 -2.04443 -7.86106 4.9574 0.71492 -1.80647
-0.00022 0.95553 0.00328 182.66953 0 -2.90966 0.96796 1.55989 -5.06227 -32.88426 4.94919 3.29724 1.24204 -68.47503 -64.13328 22.1665 79.06868 -17.31961 -2.60629 4.5253 61.54139 61.02556 21.93733 -77.8306 -22.68634 2.84537 -3.43828 3.30354 6.19275 -7.31023 -1.02302 -2.99966 -6.89703 -1.29277 3.18702 -2.09369 -7.88179 4.96498 0.74407 -1.74776
-0.00025 0.9555 0.00368 182.66884 0 -2.91181 0.93933 1.54455 -5.06978 -32.8822 4.96117 3.29766 1.45421 -68.42374 -63.83484 22.25717 79.06183 -17.33958 -2.54808 4.55126 61.47086 60.84244 22.14554 -78.10669 -22.74357 2.91934 -3.43491 3.28446 6.19086 -7.32416 -1.01407 -3.00661 -6.8959 -1.28909 3.16033 -2.14217 -7.89575 4.97058 0.77175 -1.6943
-0.00027 0.95548 0.00413 182.65804 0 -2.91548 0.90681 1.52493 -5.0749 -32.86769 4.97339 3.30267 1.68764 -68.36892 -63.50095 22.34719 79.10703 -17.32689 -2.51714 4.58558 61.4115 60.66315 22.33674 -78.29887 -22.74283 2.96538 -3.42714 3.26384 6.19924 -7.34105 -1.00665 -3.01155 -6.89381 -1.27894 3.13091 -2.19301 -7.92365 4.97996 0.8033 -1.62881
-0.00024 0.95546 0.00466 182.62343 0 -2.92323 0.86465 1.49509 -5.07107 -32.82226 4.98719 3.31801 1.96112 -68.31013 -63.10001 22.41518 79.28854 -17.2151 -2.5649 4.64208 61.38604 60.50948 22.4684 -78.2516 -22.59673 2.93547 -3.4101 3.24032 6.23621 -7.36224 -1.00443 -3.01084 -6.8928 -1.24987 3.09527 -2.25461 -7.99141 5.00058 0.84486 -1.53022
-0.00019 0.95545 0.00524 182.57791 0 -2.93249 0.81854 1.46076 -5.0655 -32.76379 5.00156 3.33856 2.25801 -68.24806 -62.65959 22.48491 79.52395 -17.07153 -2.64056 4.70617 61.37022 60.35975 22.58349 -78.11751 -22.38856 2.87691 -3.38814 3.21518 6.28404 -7.38703 -1.0036 -3.00806 -6.89069 -1.21451 3.05685 -2.3173 -8.07291 5.02495 0.89012 -1.41993
-0.00014 0.95544 0.00581 182.53488 0 -2.94101 0.77382 1.42777 -5.06259 -32.70934 5.01591 3.3586 2.55143 -68.18696 -62.22417 22.56367 79.73906 -16.94723 -2.70328 4.76463 61.34633 60.20568 22.7109 -78.01949 -22.19678 2.82979 -3.36663 3.19027 6.32778 -7.41266 -1.00151 -3.00619 -6.88781 -1.18272 3.01926 -2.37595 -8.14729 5.04726 0.93361 -1.31566
-0.00011 0.95542 0.00635 182.50243 0 -2.94973 0.73075 1.39783 -5.05161 -32.66292 5.02878 3.37084 2.81272 -68.12806 -61.84646 22.60083 79.93541 -16.80284 -2.7665 4.83187 61.33901 60.06279 22.81878 -77.93628 -22.05487 2.78916 -3.35264 3.16745 6.36753 -7.428 -1.002 -3.0045 -6.89002 -1.14783 2.9834 -2.45008 -8.22552 5.07102 0.97775 -1.20806
-5e-05 0.95541 0.00696 182.44513 0 -2.95845 0.68334 1.3603 -5.05719 -32.59663 5.04527 3.40045 3.14962 -68.06318 -61.33424 22.72585 80.18499 -16.69259 -2.83567 4.88363 61.29859 59.89571 22.96321 -77.80257 -21.79481 2.7286 -3.32185 3.1399 6.41849 -7.46543 -0.99756 -3.00191 -6.8815 -1.11803 2.94333 -2.49175 -8.2988 5.09269 1.02121 -1.10492
8e-05 0.95542 0.00775 182.32345 0 -2.96624 0.62475 1.30443 -5.1077 -32.47916 5.06893 3.47796 3.65977 -67.98951 -60.50535 23.08437 80.55602 -16.6847 -2.91265 4.88066 61.17034 59.68165 23.2123 -77.53652 -21.21829 2.61595 -3.24553 3.09981 6.49573 -7.56459 -0.97814 -2.99735 -6.84311 -1.10292 2.89222 -2.447 -8.35675 5.10747 1.06327 -1.01497
0.00023 0.95544 0.00861 182.17673 0 -2.97409 0.56201 1.24077 -5.17514 -32.34203 5.09676 3.57255 4.25061 -67.90827 -59.53351 23.53312 80.98051 -16.71191 -2.99501 4.86372 61.00708 59.43945 23.49911 -77.22522 -20.52623 2.48496 -3.15253 3.055 6.58429 -7.68552 -0.95394 -2.99192 -6.794 -1.09333 2.83701 -2.36881 -8.40889 5.12007 1.10426 -0.93029
0.00037 0.95545 0.00945 182.04057 0 -2.98227 0.50128 1.17974 -5.23574 -32.21358 5.12443 3.65858 4.82392 -67.82663 -58.59864 23.94572 81.38934 -16.72316 -3.07617 4.85969 60.85622 59.19679 23.76823 -76.9434 -19.89017 2.36502 -3.06744 3.01228 6.66899 -7.79542 -0.93258 -2.98688 -6.75024 -1.08179 2.7838 -2.30372 -8.4626 5.1338 1.14481 -0.84459
